<svg id="Layer_1" data-name="Layer 1" xmlns="http://www.w3.org/2000/svg" viewBox="0 0 850.39 128.26"><defs><style>.cls-1{fill:#fff;}.cls-2{fill:#c1272d;}</style></defs><title>PrecisionMapper (on black)</title><path class="cls-1" d="M111.4,86.62a6.23,6.23,0,0,0-4.24,10.81h-.06a7.56,7.56,0,0,1,1.23,4.66c0,2.16-.55,4-1.32,4.76h0a6.25,6.25,0,1,0,8.65,0h0c-.77-.76-1.32-2.6-1.32-4.76a7.56,7.56,0,0,1,1.23-4.66h0a6.23,6.23,0,0,0-4.24-10.81Zm22.79,20.19c-.77-.76-1.32-2.6-1.32-4.76a7.56,7.56,0,0,1,1.23-4.66h0a6.19,6.19,0,0,0,0-9.11h0a7.54,7.54,0,0,1-1.23-4.66c0-2.16.55-4,1.32-4.76h0a6.24,6.24,0,1,0-8.84-8.81v0c-.75.77-2.6,1.32-4.76,1.32s-4-.54-4.75-1.31a6.18,6.18,0,0,0-9,.1v0a7.54,7.54,0,0,1-4.66,1.23c-2.16,0-4-.55-4.76-1.32v0a6.24,6.24,0,1,0-8.82,8.82h-.05c.77.76,1.32,2.6,1.32,4.76a7.54,7.54,0,0,1-1.23,4.66h0a6.19,6.19,0,0,0,0,9.13h-.06a7.56,7.56,0,0,1,1.23,4.66c0,2.16-.55,4-1.32,4.76h0a6.25,6.25,0,1,0,8.65,0h0c-.77-.76-1.32-2.6-1.32-4.76a7.56,7.56,0,0,1,1.23-4.66h0a6.19,6.19,0,0,0,0-9.13h0a7.54,7.54,0,0,1-1.23-4.66c0-2.16.55-4,1.32-4.76h0c.06-.06.11-.14.18-.2v.07c.76-.77,2.6-1.32,4.76-1.32a7.54,7.54,0,0,1,4.66,1.23v0a6.19,6.19,0,0,0,9.11,0v0a7.54,7.54,0,0,1,4.66-1.23,7.7,7.7,0,0,1,4.52,1.16,1.22,1.22,0,0,1,.17.12l.06,0v0c.06.06.12.1.18.16h0c.77.76,1.32,2.6,1.32,4.76s-.54,4-1.31,4.75a6.17,6.17,0,0,0,.1,9h0a7.56,7.56,0,0,1,1.23,4.66c0,2.16-.55,4-1.32,4.76h0a6.25,6.25,0,1,0,8.64,0Z" transform="translate(-47.76 -28.37)"/><path class="cls-2" d="M111.22,62.76a6.21,6.21,0,0,0,4.57-2v0a7.56,7.56,0,0,1,4.66-1.23c2.16,0,4,.55,4.76,1.32v-.05A6.24,6.24,0,1,0,134,52h0c-.77-.76-1.32-2.6-1.32-4.76A7.57,7.57,0,0,1,134,42.6h0a6.25,6.25,0,1,0-8.47,0h0a7.57,7.57,0,0,1,1.23,4.66c0,2.16-.55,4-1.32,4.76h.07c-.07.06-.14.11-.2.18v0c-.76.77-2.6,1.32-4.76,1.32a7.56,7.56,0,0,1-4.66-1.23v0a6.24,6.24,0,1,0-4.57,10.48Zm9.25,70a7.58,7.58,0,0,1,4.66,1.23v0a6.25,6.25,0,1,0,0-8.47v0a7.58,7.58,0,0,1-4.66,1.23c-2.16,0-4-.55-4.76-1.32v0a6.23,6.23,0,1,0-8.71,8.9h-.15c.77.93,1.32,3.18,1.32,5.83s-.51,4.72-1.23,5.71h0a6.25,6.25,0,1,0,8.47,0h0c-.73-1-1.23-3.17-1.23-5.71a11.06,11.06,0,0,1,1.17-5.56,1.12,1.12,0,0,1,.14-.27h-.12c.1-.09.18-.21.27-.31v.1C116.47,133.3,118.31,132.75,120.47,132.75Zm9.47,9a6.25,6.25,0,1,0,6.24,6.25A6.25,6.25,0,0,0,129.94,141.76Zm-55.4-18.47a6.25,6.25,0,1,0,6.25,6.25A6.25,6.25,0,0,0,74.55,123.29Zm36.67-82.43A6.25,6.25,0,1,0,105,34.62,6.25,6.25,0,0,0,111.21,40.86ZM92.87,50.36a6.25,6.25,0,1,0,6.25,6.25A6.25,6.25,0,0,0,92.87,50.36Zm70.48,12.21A4.35,4.35,0,1,0,159,58.22,4.35,4.35,0,0,0,163.35,62.57Zm-103.66,0a4.35,4.35,0,1,0-4.35-4.35A4.35,4.35,0,0,0,59.69,62.57Zm16.58,77.76a4.35,4.35,0,1,0,4.35,4.35A4.35,4.35,0,0,0,76.27,140.32Zm70.29,0a4.35,4.35,0,1,0,4.35,4.35A4.35,4.35,0,0,0,146.56,140.32ZM144.88,46a4.35,4.35,0,1,0-4.35-4.35A4.35,4.35,0,0,0,144.88,46Zm-52,77.47a6.24,6.24,0,0,0-4.32,10.74h-.05c.78.76,1.32,2.6,1.32,4.76a7.56,7.56,0,0,1-1.23,4.66h0a6.25,6.25,0,1,0,8.47,0h0A7.56,7.56,0,0,1,95.87,139c0-2.16.55-4,1.32-4.76h0a6.24,6.24,0,0,0-4.32-10.74ZM148,117.71a6.23,6.23,0,0,0,4.24-10.82h0a7.56,7.56,0,0,1-1.23-4.66c0-2.16.55-4,1.32-4.76h0a6.25,6.25,0,1,0-8.64,0h-.05c.77.76,1.32,2.6,1.32,4.76a7.56,7.56,0,0,1-1.23,4.66h.05A6.23,6.23,0,0,0,148,117.71Zm-6.25-61.88a6.21,6.21,0,0,0,1.93,4.5h-.05c.77.76,1.32,2.6,1.32,4.76a7.56,7.56,0,0,1-1.23,4.66h0a6.25,6.25,0,1,0,8.47,0h0A7.56,7.56,0,0,1,151,65.09c0-2.16.55-4,1.32-4.76h0a6.24,6.24,0,1,0-10.57-4.5ZM74.59,86.65a6.21,6.21,0,0,0-4.58,2v-.15c-.92.77-3.17,1.32-5.8,1.32-2.8,0-5.14-.62-5.94-1.47A6.18,6.18,0,0,0,54,86.65a6.25,6.25,0,0,0,0,12.49,6.17,6.17,0,0,0,4.15-1.64c.69-.91,3.12-1.59,6-1.59,2.63,0,4.88.55,5.8,1.32v-.12a6.24,6.24,0,1,0,4.58-10.47Zm14.67-43.4a5.71,5.71,0,1,0,0-7.91v0c-.69.71-2.37,1.21-4.35,1.21a6.91,6.91,0,0,1-4.26-1.13v0a5.71,5.71,0,1,0,0,7.75v0a6.92,6.92,0,0,1,4.26-1.13c2,0,3.66.5,4.35,1.21ZM171,88.2a7.56,7.56,0,0,1-1.23-4.66c0-2.16.55-4,1.32-4.76h0a6.25,6.25,0,1,0-8.64,0h-.05c.78.76,1.32,2.6,1.32,4.76a7.56,7.56,0,0,1-1.23,4.66h0a6.25,6.25,0,1,0,8.47,0ZM74.67,49.65a6.23,6.23,0,0,0-4.24,10.81h0a7.54,7.54,0,0,1,1.23,4.66c0,2.16-.55,4-1.32,4.76h0c-.06.06-.12.14-.18.21V70c-.76.77-2.6,1.32-4.76,1.32a7.56,7.56,0,0,1-4.66-1.23v0a6.25,6.25,0,1,0,0,8.47v0a7.56,7.56,0,0,1,4.66-1.23c2.16,0,4,.55,4.76,1.32v0A6.24,6.24,0,1,0,79,69.88H79c-.77-.76-1.32-2.6-1.32-4.76A7.54,7.54,0,0,1,79,60.46h0a6.23,6.23,0,0,0-4.24-10.81Zm90.1,56.87a5.7,5.7,0,0,0-3.87,9.89h0a6.92,6.92,0,0,1,1.13,4.26c0,2-.5,3.66-1.21,4.35h0c-.06.06-.1.13-.16.18v-.07c-.69.71-2.38,1.21-4.35,1.21a6.92,6.92,0,0,1-4.26-1.13v0a5.71,5.71,0,1,0,0,7.74v0a6.92,6.92,0,0,1,4.26-1.13,6.64,6.64,0,0,1,4.35,1.21v0a5.7,5.7,0,1,0,8.07-8.06h0a6.64,6.64,0,0,1-1.21-4.35,6.93,6.93,0,0,1,1.13-4.26h0a5.7,5.7,0,0,0-3.88-9.89Zm-98.5,7.22a6.92,6.92,0,0,1,4.26,1.13v0a5.71,5.71,0,1,0,0-7.74v0a6.91,6.91,0,0,1-4.26,1.13A6.65,6.65,0,0,1,61.92,107v0a5.7,5.7,0,1,0-8.07,8.06h0c.71.69,1.21,2.37,1.21,4.35a6.92,6.92,0,0,1-1.13,4.26h0a5.71,5.71,0,1,0,7.74,0h0a6.91,6.91,0,0,1-1.13-4.26c0-2,.5-3.66,1.21-4.35h-.07c.06-.06.13-.1.19-.16v0A6.65,6.65,0,0,1,66.27,113.74Z" transform="translate(-47.76 -28.37)"/><path class="cls-1" d="M224.91,102.67H210.73l-5.83,17.89H193.45l14.61-44.88a8.48,8.48,0,0,1,7.53-5.4h19c11.87,0,16.2,5.69,12.78,16.19C244.18,96.39,236.12,102.67,224.91,102.67Zm.08-9.09c5.74.07,9.42-2.37,11-7.25S235.66,79,230.3,79H218.6l-4.74,14.57Z" transform="translate(-47.76 -28.37)"/><path class="cls-1" d="M284.47,96.46a6.57,6.57,0,0,1,4.22,3.48c.43,1.7.11,4.21-.7,7.47l-2.71,9.83c-.42,1.55-.12,2.66.73,3.33H273.4a6.06,6.06,0,0,1,.08-3c0-.74.77-3.62,2.28-8.5,1.56-6.06,1-8-5.81-8h-12.2l-6.36,19.52H239.94l14.61-44.88a8.48,8.48,0,0,1,7.53-5.4h21.27c11.62,0,16.75,4,13.38,14.34C294.66,91,290.26,95.13,284.47,96.46ZM279.11,79H264.93l-4.31,13.23h13.52c5.44,0,9.07-1.77,10.65-6.65C286.29,81,284.22,79,279.11,79Z" transform="translate(-47.76 -28.37)"/><path class="cls-1" d="M306.29,75.68c1.13-3.47,3.63-5.32,7.53-5.4H348.6L345.76,79H316.5L313,89.81h21.84l-1.08,3.33c-1,3.47-3.58,5.17-7.62,5.17H310.21l-4.24,13h29.26l-3,9.24H291.67Z" transform="translate(-47.76 -28.37)"/><path class="cls-1" d="M360.45,121.3c-17.23,0-22.48-10.2-17.37-25.88,5.27-16.19,17.52-26,35.24-26,6.84,0,11.88,1.48,15.08,4.58,2.92,3.18,3.72,7.54,2.52,13H389c-2.47,0-3.95-1-4.37-3-.72-3.63-3.82-5.47-9.26-5.47-10.64,0-17.52,6.73-20.82,16.86-3.2,9.84-.93,16.78,9.54,16.78a16.92,16.92,0,0,0,15.49-9.09h11.13C385.84,114.72,374.63,121.3,360.45,121.3Z" transform="translate(-47.76 -28.37)"/><path class="cls-1" d="M404.85,75.68c1.16-3.55,3.65-5.4,7.53-5.4h5.69l-16.37,50.28H390.24Z" transform="translate(-47.76 -28.37)"/><path class="cls-1" d="M445.44,106.59c.79-2.44-.32-4.06-3.5-5-3-.89-6.51-1.78-10.23-2.73-10.15-2.52-14.09-7.1-11.92-13.75C423.48,74.57,432.17,69.4,446,69.47c13.19,0,18.34,5.17,15.61,15.6h-6.43c-2.39,0-3.7-1-4.15-3-1-2.88-3.88-4.29-8.74-4.29-6,.08-9.58,2.07-11.07,5.92-1,3.18,1.76,5.47,8.62,6.95A110.82,110.82,0,0,1,452,94.17q8.46,2.89,4.86,12.42c-3.86,9.84-12.87,14.71-27,14.71-14.84,0-20.53-5.54-17.3-16.49h11.13c-1.32,5.32,1.6,8,8.94,8S444.18,110.73,445.44,106.59Z" transform="translate(-47.76 -28.37)"/><path class="cls-1" d="M472.07,75.68c1.16-3.55,3.65-5.4,7.53-5.4h5.69l-16.37,50.28H457.45Z" transform="translate(-47.76 -28.37)"/><path class="cls-1" d="M482.21,95.42c5-15.38,18.59-26,35.24-26s23.38,10.72,18.42,26c-5,15.45-18.24,25.88-35.3,25.88S477.2,110.8,482.21,95.42Zm11.46,0c-3.2,9.84-.75,17.23,9.72,17.23s17.72-7.1,21-17.23c3.23-9.91.59-17-9.87-17S496.84,85.67,493.66,95.42Z" transform="translate(-47.76 -28.37)"/><path class="cls-1" d="M555.13,70.29h6.18l11.59,34.53,11.24-34.53h11.29l-16.37,50.28h-12L555.52,86l-11.25,34.53H533L547.6,75.68A8.48,8.48,0,0,1,555.13,70.29Z" transform="translate(-47.76 -28.37)"/><path class="cls-2" d="M608.22,70.29h11.13l-1.18,38.3,23.43-38.3h17.06l-16.37,50.28h-10.8L644.71,80,620,120.56h-11.7L610.1,80l-13.22,40.59h-10.8l14.61-44.88A8.48,8.48,0,0,1,608.22,70.29Z" transform="translate(-47.76 -28.37)"/><path class="cls-2" d="M696,70.29l3.74,50.28H687.59l-.36-10.28H665.55l-7.06,10.28H646.22l34-47a7.49,7.49,0,0,1,6.52-3.32Zm-24.6,31.5h15.41L686,80.41Z" transform="translate(-47.76 -28.37)"/><path class="cls-2" d="M733.81,102.67H719.63l-5.83,17.89H702.35L717,75.68a8.48,8.48,0,0,1,7.53-5.4h19c11.87,0,16.2,5.69,12.78,16.19C753.08,96.39,745,102.67,733.81,102.67Zm.08-9.09c5.74.07,9.42-2.37,11-7.25S744.56,79,739.2,79H727.5l-4.74,14.57Z" transform="translate(-47.76 -28.37)"/><path class="cls-2" d="M779.07,102.67H764.89l-5.83,17.89H747.61l14.61-44.88a8.48,8.48,0,0,1,7.53-5.4h19c11.87,0,16.2,5.69,12.78,16.19C798.34,96.39,790.28,102.67,779.07,102.67Zm.08-9.09c5.75.07,9.42-2.37,11-7.25S789.82,79,784.46,79H772.76L768,93.58Z" transform="translate(-47.76 -28.37)"/><path class="cls-2" d="M808.87,75.68c1.13-3.47,3.63-5.32,7.53-5.4h34.78L848.34,79H819.08l-3.52,10.8h21.84l-1.08,3.33c-1,3.47-3.58,5.17-7.62,5.17H812.8l-4.24,13h29.26l-3,9.24H794.26Z" transform="translate(-47.76 -28.37)"/><path class="cls-2" d="M884.88,96.46a6.57,6.57,0,0,1,4.23,3.48c.43,1.7.11,4.21-.7,7.47l-2.71,9.83c-.42,1.55-.13,2.66.73,3.33H873.81a6,6,0,0,1,.08-3c0-.74.77-3.62,2.27-8.5,1.56-6.06,1-8-5.81-8h-12.2l-6.36,19.52H840.35L855,75.68a8.48,8.48,0,0,1,7.53-5.4h21.26c11.62,0,16.75,4,13.38,14.34C895.07,91,890.67,95.13,884.88,96.46ZM879.52,79H865.34L861,92.24h13.52c5.44,0,9.07-1.77,10.65-6.65C886.7,81,884.63,79,879.52,79Z" transform="translate(-47.76 -28.37)"/></svg>