<svg id="Layer_1" data-name="Layer 1" xmlns="http://www.w3.org/2000/svg" viewBox="0 0 812.52 122.04"><defs><style>.cls-1{fill:#fff;}.cls-2{fill:#c1272d;}</style></defs><title>PrecisionViewer (on black)</title><path class="cls-1" d="M227.53,107.91H213.35l-5.82,17.89H196.07l14.61-44.88a8.48,8.48,0,0,1,7.53-5.4h19c11.87,0,16.2,5.69,12.78,16.19C246.8,101.62,238.74,107.91,227.53,107.91Zm.08-9.1c5.75.07,9.42-2.36,11-7.24s-.34-7.32-5.69-7.32H221.22l-4.74,14.57Z" transform="translate(-66.7 -31.48)"/><path class="cls-1" d="M287.09,101.7a6.56,6.56,0,0,1,4.22,3.48c.43,1.7.11,4.21-.7,7.47l-2.71,9.83c-.42,1.55-.13,2.66.73,3.33H276a6.07,6.07,0,0,1,.08-3c0-.74.77-3.62,2.27-8.5,1.56-6.06,1-8-5.81-8h-12.2L254,125.8H242.57l14.61-44.88a8.47,8.47,0,0,1,7.53-5.4H286c11.62,0,16.75,4,13.38,14.34C297.28,96.23,292.89,100.37,287.09,101.7Zm-5.36-17.45H267.55l-4.31,13.23h13.52c5.44,0,9.07-1.77,10.66-6.65C288.91,86.24,286.84,84.25,281.73,84.25Z" transform="translate(-66.7 -31.48)"/><path class="cls-1" d="M308.91,80.92c1.13-3.48,3.63-5.32,7.53-5.4h34.78l-2.84,8.72H319.12L315.61,95h21.84l-1.08,3.32c-1,3.48-3.58,5.17-7.62,5.17H312.84l-4.24,13h29.26l-3,9.24H294.3Z" transform="translate(-66.7 -31.48)"/><path class="cls-1" d="M363.08,126.54c-17.23,0-22.48-10.2-17.37-25.88,5.27-16.19,17.52-26,35.24-26,6.84,0,11.88,1.48,15.07,4.58,2.92,3.18,3.73,7.54,2.52,13h-6.92c-2.47,0-3.95-1-4.37-3-.72-3.62-3.82-5.47-9.26-5.47-10.63,0-17.52,6.73-20.82,16.86-3.2,9.84-.93,16.78,9.53,16.78a16.92,16.92,0,0,0,15.49-9.09h11.13C388.46,120,377.26,126.54,363.08,126.54Z" transform="translate(-66.7 -31.48)"/><path class="cls-1" d="M407.48,80.92c1.16-3.55,3.65-5.4,7.53-5.4h5.69L404.32,125.8H392.86Z" transform="translate(-66.7 -31.48)"/><path class="cls-1" d="M448.07,111.83c.79-2.44-.32-4.07-3.5-5-3-.89-6.51-1.78-10.23-2.74-10.15-2.51-14.09-7.1-11.92-13.75,3.69-10.57,12.38-15.75,26.21-15.68,13.18,0,18.34,5.17,15.61,15.6H457.8c-2.39,0-3.7-1-4.15-3-1-2.88-3.88-4.29-8.74-4.29-6,.07-9.58,2.07-11.08,5.92-1,3.18,1.76,5.47,8.62,6.95a111,111,0,0,1,12.22,3.48q8.46,2.88,4.86,12.42c-3.86,9.83-12.87,14.71-27,14.71-14.84,0-20.53-5.55-17.3-16.49h11.13c-1.32,5.32,1.6,8,8.94,8S446.8,116,448.07,111.83Z" transform="translate(-66.7 -31.48)"/><path class="cls-1" d="M474.69,80.92c1.16-3.55,3.65-5.4,7.53-5.4h5.69L471.54,125.8H460.08Z" transform="translate(-66.7 -31.48)"/><path class="cls-1" d="M484.83,100.66c5-15.38,18.59-26,35.24-26s23.38,10.72,18.42,26c-5,15.46-18.23,25.88-35.3,25.88S479.82,116,484.83,100.66Zm11.46,0c-3.2,9.84-.75,17.23,9.72,17.23s17.72-7.1,21-17.23c3.23-9.91.59-17-9.87-17S499.47,90.9,496.29,100.66Z" transform="translate(-66.7 -31.48)"/><path class="cls-1" d="M557.75,75.52h6.18l11.59,34.53,11.24-34.53h11.29L581.69,125.8h-12L558.15,91.27,546.91,125.8H535.61l14.61-44.88A8.48,8.48,0,0,1,557.75,75.52Z" transform="translate(-66.7 -31.48)"/><path class="cls-2" d="M651.63,75.52,616.05,125.8H605.17l-3-50.28h12.69l-.28,37.56,22-33.79a7.32,7.32,0,0,1,6.83-3.77Z" transform="translate(-66.7 -31.48)"/><path class="cls-2" d="M653.19,80.92c1.16-3.55,3.65-5.4,7.53-5.4h5.69L650,125.8H638.58Z" transform="translate(-66.7 -31.48)"/><path class="cls-2" d="M671.54,80.92c1.13-3.48,3.63-5.32,7.53-5.4h34.78L711,84.25H681.75L678.23,95h21.84L699,98.37c-1,3.48-3.58,5.17-7.62,5.17H675.46l-4.24,13h29.26l-3,9.24H656.93Z" transform="translate(-66.7 -31.48)"/><path class="cls-2" d="M789,75.52,756.74,125.8h-11l3.89-38.52L728.39,125.8h-11l.38-50.28h12l-2.05,35.42L747.4,75.52h12.2l-3.45,35.42,18.75-31.5a8.33,8.33,0,0,1,7-3.92Z" transform="translate(-66.7 -31.48)"/><path class="cls-2" d="M789.94,80.92c1.13-3.48,3.63-5.32,7.53-5.4h34.78l-2.84,8.72H800.14L796.63,95h21.84l-1.08,3.32c-1,3.48-3.58,5.17-7.62,5.17H793.86l-4.24,13h29.26l-3,9.24H775.32Z" transform="translate(-66.7 -31.48)"/><path class="cls-2" d="M865.94,101.7a6.56,6.56,0,0,1,4.22,3.48c.43,1.7.11,4.21-.7,7.47l-2.71,9.83c-.42,1.55-.13,2.66.73,3.33H854.88a6.07,6.07,0,0,1,.08-3c0-.74.77-3.62,2.27-8.5,1.56-6.06,1-8-5.81-8h-12.2l-6.36,19.52H821.42L836,80.92a8.47,8.47,0,0,1,7.53-5.4h21.26c11.62,0,16.75,4,13.38,14.34C876.13,96.23,871.73,100.37,865.94,101.7Zm-5.36-17.45H846.4l-4.31,13.23h13.52c5.44,0,9.07-1.77,10.66-6.65C867.76,86.24,865.69,84.25,860.58,84.25Z" transform="translate(-66.7 -31.48)"/><rect class="cls-2" x="108.5" y="122.76" width="22.16" height="6.55" transform="translate(-103.91 169.4) rotate(-72.03)"/><rect class="cls-2" x="127.6" y="83.03" width="6.55" height="69.24" transform="translate(-87.98 174.61) rotate(-72.12)"/><polygon class="cls-2" points="67.51 44.66 23.59 30.42 25.61 24.2 63.41 36.44 70.33 16.28 76.53 18.4 67.51 44.66"/><polygon class="cls-1" points="81.08 73.94 39.38 60.47 41.39 54.24 76.87 65.7 90.03 25.11 96.26 27.13 81.08 73.94"/><path class="cls-2" d="M158.87,153.52,66.7,123.65,96.58,31.48l92.17,29.88ZM75,119.43l79.71,25.84,25.84-79.71L100.79,39.73Z" transform="translate(-66.7 -31.48)"/><rect class="cls-2" x="68.43" y="93.33" width="65.68" height="6.55" transform="translate(-88.4 131.97) rotate(-72.18)"/></svg>